# xmcd
#
# Track frame offsets: 
#        150
#        20873
#        37862
#        54824
#        74688
#        89276
#        104071
#        122227
#        140790
#        156324
#
# Disc length: 2328 seconds
#
# Revision: 0
# Processed by: cddbd v1.5.2PL0 Copyright (c) Steve Scherf et al.
# Submitted via: ExactAudioCopy v1.0b1
#
DISCID=9209160a
DTITLE=Champion Jack Dupree - Blues From The Gutter
DYEAR=1958
DGENRE=Blues
TTITLE0=Strollin'
TTITLE1=T.B. Blues
TTITLE2=Can't Kick The Habit
TTITLE3=Evil Woman
TTITLE4=Nasty Boogie
TTITLE5=Junker's Blues
TTITLE6=Bad Blood
TTITLE7=Goin' Down Slow
TTITLE8=Frankie and Johnny
TTITLE9=Stack-O-Lee
EXTD=
EXTT0=
EXTT1=
EXTT2=
EXTT3=
EXTT4=
EXTT5=
EXTT6=
EXTT7=
EXTT8=
EXTT9=
PLAYORDER=
